<svg class="svg-icon" style="width: 1em; height: 1em;vertical-align: middle;fill: currentColor;overflow: hidden;" viewBox="0 0 1024 1024" version="1.1" xmlns="http://www.w3.org/2000/svg"><path d="M512 512m-448 0a448 448 0 1 0 896 0 448 448 0 1 0-896 0Z" fill="#FFEAE4" /><path d="M512 752S256 581.382 256 440c0-70.692 59.098-128 132-128 56.964 0 105.5 34.99 124 84.015C530.5 346.99 579.036 312 636 312c72.902 0 132 57.308 132 128 0 141.385-256 312-256 312z" fill="#DB1307" /><path d="M330.672 593.607a544.881 544.881 0 0 1-14.04-17h67.622l26.43-68.06c2.873-7.4 13.422-7.171 15.972 0.346l39.047 115.104L529.1 444.174c2.758-7.822 13.937-7.468 16.195 0.511l37.333 131.922h124.741a544.866 544.866 0 0 1-14.04 17h-117.13a8.5 8.5 0 0 1-8.178-6.186l-31.792-112.34-62.664 177.745c-2.684 7.613-13.473 7.549-16.066-0.095l-39.431-116.237-20.072 51.69a8.5 8.5 0 0 1-7.924 5.423h-59.4z" fill="#FFFFFF" /></svg>